<svg xmlns="http://www.w3.org/2000/svg" viewBox="0 0 56 56" fill="none">
  <defs>
    <linearGradient id="kpiRevenueBagBody" x1="16" y1="11" x2="40" y2="50" gradientUnits="userSpaceOnUse">
      <stop stop-color="#4bd98d"/>
      <stop offset="1" stop-color="#22a968"/>
    </linearGradient>
    <linearGradient id="kpiRevenueBagTop" x1="19" y1="6" x2="36" y2="18" gradientUnits="userSpaceOnUse">
      <stop stop-color="#55dfa0"/>
      <stop offset="1" stop-color="#2fbf75"/>
    </linearGradient>
  </defs>
  <path fill="url(#kpiRevenueBagTop)" d="M17.9 8.3c3.8 2 6.7 2.2 10.1-.4 3.4 2.6 6.3 2.4 10.1.4l-4 9.2H21.9l-4-9.2z"/>
  <path fill="#209a5e" opacity=".28" d="M21.3 16h13.4c1.8 0 3.2 1.1 3.2 2.5s-1.4 2.5-3.2 2.5H21.3c-1.8 0-3.2-1.1-3.2-2.5s1.4-2.5 3.2-2.5z"/>
  <path fill="url(#kpiRevenueBagBody)" d="M18.9 18h18.2C43.8 23.9 47 31.1 47 40c0 7.6-6.8 11.8-19 11.8S9 47.6 9 40c0-8.9 3.2-16.1 9.9-22z"/>
  <path fill="#fff" opacity=".2" d="M16.2 26.3c2.1-3.9 5.1-5.9 9.5-6.3-3.2 4-5.2 9.7-5.5 17.7-.2 4.6.5 8.3 1.9 11-5.9-1-8.9-4-8.9-9.1 0-5 .9-9.4 3-13.3z"/>
  <path fill="#fff" d="M29.5 43.7h-2.7v-2.3c-2.4-.3-4.4-1.4-5.8-3l1.8-2.6c1.4 1.4 3.1 2.1 5.2 2.1 1.7 0 2.6-.7 2.6-1.8 0-1.1-1.2-1.6-3.4-2.4-2.8-.9-5.4-2-5.4-5.2 0-2.7 2-4.6 5-5.1v-2.3h2.7v2.3c2 .3 3.7 1.1 5 2.3L32.8 28c-1.2-.9-2.7-1.5-4.2-1.5-1.4 0-2.3.6-2.3 1.6 0 1 1.2 1.4 3.2 2.1 3 .9 5.7 2.1 5.7 5.5 0 2.9-2 5-5.7 5.6v2.4z"/>
</svg>
